HIERARCHY
ROOT Hips
{
	OFFSET -0.179506 -22.333345 2.821913
	CHANNELS 6 Xposition Yposition Zposition Zrotation Yrotation Xrotation 
	JOINT LeftUpLeg
	{
		OFFSET 6.951974 -9.140623 -0.681533
		CHANNELS 3 Zrotation Yrotation Xrotation
		JOINT LeftLeg
		{
			OFFSET 3.427654 -37.519855 -0.449580
			CHANNELS 3 Zrotation Yrotation Xrotation
			JOINT LeftFoot
			{
				OFFSET -1.359570 -39.796059 -4.369333
				CHANNELS 3 Zrotation Yrotation Xrotation
				JOINT LeftToe
				{
					OFFSET 2.635814 -5.579078 11.928840
					CHANNELS 3 Zrotation Yrotation Xrotation
					End Site
					{
						OFFSET 0.000000 0.000000 0.000000
					}
				}
			}
		}
	}
	JOINT RightUpLeg
	{
		OFFSET -6.767048 -9.052170 -0.431982
		CHANNELS 3 Zrotation Yrotation Xrotation
		JOINT RightLeg
		{
			OFFSET -3.829005 -38.256897 -0.885003
			CHANNELS 3 Zrotation Yrotation Xrotation
			JOINT RightFoot
			{
				OFFSET 1.577377 -39.841461 -4.231180
				CHANNELS 3 Zrotation Yrotation Xrotation
				JOINT RightToe
				{
					OFFSET -2.537174 -4.814398 12.334795
					CHANNELS 3 Zrotation Yrotation Xrotation
					End Site
					{
						OFFSET 0.000000 0.000000 0.000000
					}
				}
			}
		}
	}
	JOINT Spine
	{
		OFFSET -0.253288 10.896323 -2.669631
		CHANNELS 3 Zrotation Yrotation Xrotation
		JOINT Spine1
		{
			OFFSET 0.548704 13.518043 0.109247
			CHANNELS 3 Zrotation Yrotation Xrotation
			JOINT Spine2
			{
				OFFSET 0.145701 5.292222 2.542457
				CHANNELS 3 Zrotation Yrotation Xrotation
				JOINT Neck
				{
					OFFSET -0.277840 21.387037 -4.285703
					CHANNELS 3 Zrotation Yrotation Xrotation
					JOINT Head
					{
						OFFSET 0.515184 6.496960 5.134897
						CHANNELS 3 Zrotation Yrotation Xrotation
						End Site
						{
							OFFSET 0.000000 0.000000 0.000000
						}
					}
				}
				JOINT LeftShoulder
				{
					OFFSET 7.884473 12.174932 -3.408961
					CHANNELS 3 Zrotation Yrotation Xrotation
					JOINT LeftArm
					{
						OFFSET 9.097692 3.046888 -0.886815
						CHANNELS 3 Zrotation Yrotation Xrotation
						JOINT LeftForeArm
						{
							OFFSET 25.961220 -1.277207 -2.745643
							CHANNELS 3 Zrotation Yrotation Xrotation
							JOINT LeftHand
							{
								OFFSET 24.923361 0.898606 -0.117091
								CHANNELS 3 Zrotation Yrotation Xrotation
								End Site
								{
									OFFSET 0.000000 0.000000 0.000000
								}
							}
						}
					}
				}
				JOINT RightShoulder
				{
					OFFSET -8.175920 11.883285 -3.861528
					CHANNELS 3 Zrotation Yrotation Xrotation
					JOINT RightArm
					{
						OFFSET -9.601238 3.255117 -0.914307
						CHANNELS 3 Zrotation Yrotation Xrotation
						JOINT RightForeArm
						{
							OFFSET -25.374195 -1.332924 -2.140099
							CHANNELS 3 Zrotation Yrotation Xrotation
							JOINT RightHand
							{
								OFFSET -25.529810 0.777228 -0.555919
								CHANNELS 3 Zrotation Yrotation Xrotation
								End Site
								{
									OFFSET 0.000000 0.000000 0.000000
								}
							}
						}
					}
				}
			}
		}
	}
}
MOTION
Frames: 13
Frame Time: 0.033333
-3.599800 -335.051971 95.767982 -150.213332 -8.608794 92.726405 -9.980720 -27.131196 -24.654297 -4.200776 -6.338392 12.581906 -3.937005 0.601950 0.358520 nan nan nan 9.173066 -18.847635 24.533844 -4.634675 -7.499602 -32.027964 7.950410 -14.845273 -1.579400 nan nan nan -14.663037 8.189636 -22.483470 -0.043147 -13.693432 14.780141 -2.281009 -7.113416 10.448924 3.013143 -4.288668 -3.702581 3.720347 -9.240386 3.615999 -14.478057 11.452595 9.082842 -60.382974 -6.680147 12.421271 3.134838 -25.503529 -2.162541 0.847721 -16.141105 -27.488843 17.383756 -12.237152 -2.735794 67.798949 4.547802 23.601773 -4.792521 35.114387 0.627741 11.419665 10.284878 -25.124012 
-3.580608 -334.710541 95.692314 -150.594074 -8.390633 93.085945 -9.788982 -26.884937 -25.005216 -4.218577 -6.016767 11.626611 -3.956582 0.360460 0.515627 nan nan nan 9.638253 -18.581398 24.362463 -4.871334 -7.290373 -31.943319 7.815938 -14.939314 -1.408817 nan nan nan -14.238966 8.307660 -22.946437 0.002294 -13.526896 15.096353 -2.318256 -7.050056 9.898109 2.720623 -4.587498 -3.102829 3.631604 -9.037336 3.398438 -14.856575 11.321645 9.367592 -60.153734 -6.321549 12.091742 3.091622 -25.518392 -2.360052 0.267733 -16.245820 -26.898547 17.143183 -12.229812 -2.489578 67.829828 4.726261 23.397118 -4.644633 35.172740 0.892150 11.662317 10.392403 -24.982857 
-3.563237 -334.422485 95.606728 -151.228750 -8.284350 93.211095 -9.848062 -26.492969 -25.104048 -4.214191 -5.776064 10.695509 -4.025632 0.259673 0.883846 nan nan nan 9.704150 -18.434817 24.449190 -5.022150 -7.050383 -31.798437 7.720953 -14.698373 -1.482270 nan nan nan -13.800689 8.497054 -23.043305 -0.017585 -13.307974 15.320193 -2.309934 -6.890214 9.475431 2.396373 -4.724973 -2.748175 3.520239 -8.834387 3.249296 -15.159592 11.113591 9.513111 -60.164484 -5.897094 11.809285 3.130433 -25.493891 -2.564917 -0.053951 -16.175266 -26.616857 16.981691 -11.847957 -2.228563 67.711047 5.036390 23.134688 -4.475630 35.134784 0.858713 11.611841 10.425261 -24.991513 
-3.567570 -334.054474 95.470100 -151.564472 -8.324100 92.995749 -10.336891 -26.147122 -24.819761 -4.238876 -5.733197 10.046028 -4.087955 0.148188 1.148300 nan nan nan 9.496279 -18.557069 25.100460 -5.026427 -6.949340 -31.931553 7.789359 -14.402003 -1.537229 nan nan nan -13.496608 8.687424 -22.684972 -0.124283 -13.183965 15.219146 -2.361340 -6.710101 9.378895 2.251998 -4.581567 -2.843670 3.458420 -8.757563 3.471311 -15.133782 10.983945 9.497013 -60.420669 -5.594755 11.677780 3.213811 -25.223196 -2.677029 -0.304024 -16.422426 -26.742016 16.819080 -11.599387 -2.251103 67.864459 5.109120 22.973596 -4.548424 35.009379 0.786121 11.832557 10.513795 -24.830691 
-3.496760 -333.764008 95.334648 -152.368997 -8.279263 92.469865 -10.876943 -25.393106 -24.230856 -4.145958 -5.519926 9.528419 -4.271526 -0.024848 1.151158 nan nan nan 9.196316 -18.637204 26.002431 -5.198625 -6.742019 -31.837488 7.889289 -13.878810 -1.686939 nan nan nan -12.959582 8.960012 -21.568983 -0.208763 -12.865628 15.004013 -2.304726 -6.330954 9.133170 2.162488 -4.675924 -2.691609 3.449302 -8.565505 3.234530 -15.303679 11.034874 9.079122 -60.545703 -5.189630 11.477860 3.279632 -25.126841 -2.524937 -0.808329 -16.362695 -26.673098 16.766324 -11.187795 -2.366418 67.978762 5.257092 22.710457 -4.766843 34.908829 0.544576 12.176701 10.466252 -24.392751 
-3.560278 -333.378418 95.293358 -153.109507 -8.076277 92.544513 -10.909820 -25.084215 -24.182063 -3.839440 -5.005076 8.663619 -4.691463 -0.096756 1.381721 nan nan nan 8.739769 -19.255139 26.082184 -4.879141 -6.388219 -31.384572 8.287751 -12.998258 -2.306620 nan nan nan -13.005384 8.298132 -22.620506 -0.280484 -12.858333 16.083168 -2.124674 -6.552953 9.933598 3.020426 -3.774129 -3.576024 2.641526 -7.640271 2.989684 -16.073454 13.351273 7.773853 -60.746899 -5.385612 11.598594 3.661482 -24.902424 -1.636566 -1.291821 -16.621081 -26.903404 17.981113 -11.420343 -0.727073 66.779243 9.379616 23.097019 -4.031892 33.804020 0.708074 11.694325 11.100956 -24.122105 
-3.614480 -333.003387 95.219299 -153.652369 -8.103857 92.582273 -11.150403 -25.002340 -24.026009 -3.628396 -4.599419 7.657925 -4.784020 0.026008 1.862978 nan nan nan 8.472418 -19.032412 26.306530 -4.709599 -6.255684 -31.199984 8.382805 -12.715092 -2.771040 nan nan nan -12.918671 8.363926 -22.982801 -0.247034 -12.689767 16.653116 -2.119938 -6.419587 9.643558 3.042703 -3.382187 -3.423005 2.339100 -7.790452 3.039383 -16.318128 13.573443 7.572620 -60.762281 -5.188140 11.814588 3.751382 -24.689772 -1.786304 -1.481575 -16.691387 -26.663423 18.302092 -11.392032 -0.531205 66.575240 10.031942 23.193210 -4.224611 33.368257 0.248661 11.262545 11.034336 -23.880352 
-3.579082 -332.285767 95.173119 -152.701634 -8.269086 93.905625 -10.728117 -26.064148 -25.371571 -3.795016 -4.520504 7.028247 -4.673021 -0.012469 2.311056 nan nan nan 9.335096 -19.297995 25.096599 -4.822156 -6.357950 -31.414833 8.583112 -12.835984 -2.673888 nan nan nan -14.256795 7.868701 -25.849121 -0.042905 -13.198077 17.216231 -2.208518 -6.931211 10.375170 3.469292 -2.643322 -3.674936 1.983004 -8.510256 3.796451 -15.880678 14.334984 7.954128 -60.690050 -5.435197 12.406925 3.239363 -24.499886 -1.654031 -0.674690 -16.969411 -27.187431 18.807164 -12.304180 -0.394318 66.562834 10.739918 24.044749 -4.113227 32.942933 0.362997 9.872218 11.270988 -23.938478 
-3.555854 -331.753601 95.141228 -152.749602 -8.179354 94.806875 -10.273372 -26.386558 -26.334258 -3.791515 -4.277841 6.617861 -4.455548 -0.071816 2.432331 nan nan nan 9.903657 -19.333776 24.247871 -4.994932 -6.146227 -31.240583 8.522756 -12.767154 -2.946937 nan nan nan -14.682565 7.673246 -27.742142 0.088711 -13.389825 17.970921 -2.272894 -7.036100 10.345227 3.600857 -2.256302 -3.607865 1.705460 -8.827768 4.153959 -15.910597 14.715096 8.137604 -60.601060 -5.371295 12.557879 3.021166 -24.271229 -1.590855 -0.548885 -17.215075 -27.234320 19.265593 -12.556896 -0.032177 66.179051 11.348883 24.244412 -3.958798 32.943727 0.654432 9.188198 11.745517 -23.853487 
-3.590148 -331.438293 95.119987 -154.026916 -7.842205 95.037249 -10.018887 -25.700967 -26.575379 -3.616965 -3.747672 6.262897 -4.357450 -0.075509 2.379824 nan nan nan 9.911783 -18.843161 24.143072 -5.104002 -5.492063 -30.574141 8.197521 -12.464833 -3.526035 nan nan nan -14.044391 7.919894 -28.243092 0.152560 -13.115610 18.831413 -2.267535 -6.578317 9.439957 3.386703 -2.399118 -2.970961 1.675094 -8.497711 3.841333 -16.410887 14.586846 8.001312 -60.643485 -4.781960 12.220230 3.387822 -24.208866 -1.927775 -1.436655 -17.063474 -26.483873 19.406515 -11.994051 0.455491 65.688480 11.640040 23.666706 -3.970987 33.039140 0.683929 10.791638 11.802301 -23.564124 
-3.622280 -331.299988 95.111900 -156.092891 -7.253510 94.584704 -9.879412 -24.309056 -26.046580 -3.312949 -2.980782 5.808157 -4.808940 -0.044718 2.384418 nan nan nan 9.534363 -18.162148 24.625449 -5.016631 -4.938954 -29.368208 7.952893 -12.015373 -4.527441 nan nan nan -12.529687 8.525833 -27.386004 0.167682 -12.570841 19.819317 -2.192051 -5.784814 7.954317 2.969249 -2.781269 -2.238515 1.709408 -7.801823 2.878504 -17.418881 14.034857 7.536213 -60.785114 -3.943917 11.660566 4.100230 -24.124209 -2.852329 -2.344297 -16.609729 -25.453356 19.484024 -10.831904 0.820531 64.916733 11.868254 22.648484 -3.985921 33.146966 0.345220 12.060939 11.631218 -22.966822 
-3.769937 -331.401031 95.151138 -159.276137 -6.283893 93.586566 -9.661897 -21.927238 -24.953090 -2.767827 -1.970052 5.354844 -5.459560 -0.006718 2.524281 nan nan nan 8.894165 -16.771147 25.373587 -4.867605 -3.679725 -27.299290 7.585022 -10.634012 -5.102758 nan nan nan -9.733753 9.437353 -25.013237 0.126591 -11.586638 20.764363 -2.245959 -4.489477 5.559597 2.102786 -3.303850 -0.967404 1.723173 -6.895736 1.187455 -18.802901 13.293808 6.771320 -60.905746 -2.669695 10.855424 5.027691 -24.114915 -3.868341 -3.499925 -16.100944 -24.252712 19.356187 -9.351408 1.001906 64.136386 11.770085 21.275588 -4.102691 33.168749 0.136219 12.557052 11.278896 -22.116688 
-4.013577 -331.903137 95.352318 -163.876221 -4.346243 91.844985 -8.754542 -18.149225 -23.323875 -1.907194 -0.867144 5.130874 -6.591899 0.015669 2.620846 nan nan nan 8.363607 -15.727605 26.044033 -4.566205 -2.430394 -23.911115 7.178520 -8.685808 -6.246935 nan nan nan -5.445390 8.446932 -20.569638 -0.283600 -10.659703 22.502998 -0.939336 -1.347482 1.678295 -0.654296 -4.816415 0.982533 1.905897 -3.346139 -1.944600 -22.852311 12.989917 3.917811 -60.938606 0.033867 8.016888 6.404623 -23.875415 -4.493330 -5.750767 -15.588789 -22.259238 17.582893 -5.229344 3.178498 62.391459 12.832976 17.875242 -3.089769 33.414746 1.031883 12.104370 11.385512 -21.584236 
